<svg class="svg-icon" style="width: 1em; height: 1em;vertical-align: middle;fill: currentColor;overflow: hidden;" viewBox="0 0 1024 1024" version="1.1" xmlns="http://www.w3.org/2000/svg"><path d="M809.8 570.1c5.1-17.9 8.4-36.5 9.8-55.8C830.7 361.7 716.1 229 563.5 217.8c-90.1-6.6-173.4 30.7-228.7 93.9 26.4-111.8 108.7-207.6 225.9-246 62.6-20.5 126.8-21.9 186.4-7.4-78.5-40.5-172.6-50.7-263.2-21-179.4 58.8-277.1 251.9-218.3 431.3 0.5 1.5 1 3.1 1.6 4.6 0 0.3-0.1 0.6-0.1 0.9C256 626.7 370.6 759.4 523.2 770.6c79.4 5.8 153.3-22.5 207.7-72.4-27.3 110.3-109.1 204.5-225 242.5-62.6 20.5-126.8 21.9-186.4 7.4 78.5 40.5 172.6 50.7 263.1 21.1 168.7-55.3 265.2-229.3 227.2-399.1z" fill="#1677B3" /></svg>